PathFileType	4	(X/Y/Z)	Walk2.trc
DataRate	CameraRate	NumFrames	NumMarkers	Units	OrigDataRate	OrigDataStartFrame	OrigNumFrames
200.000000	200.000000	8	56	mm	200.000000	383	568
Frame#	Times		RASI		RACR1		RUA1		RFA1		RTH2		C7		LFA1		RTH3		RElbow		LElbowM		RCAR		RTH4		RLFC		RTB3		RMT1		RTB1		RWRU		RMT5		LACR1		RTH1		RTB4		RTB2		LTH3		LElbow		RMMAL		LWRU		RWRR		LPSI		CLAV		LTB1		T10		LBHD		RPSI		LTB4		LTB3		LLFC		LTH2		LTH4		LTB2		RBHD		LWRR		LTH1		LFHD		LMT1		RBack		LMMAL		LCAL		LLMAL		RLMAL		RToe		LMT5		RElbowM		LToe		LUA1		LCAR		RCAL
			X1	Y1	Z1	X2	Y2	Z2	X3	Y3	Z3	X4	Y4	Z4	X5	Y5	Z5	X6	Y6	Z6	X7	Y7	Z7	X8	Y8	Z8	X9	Y9	Z9	X10	Y10	Z10	X11	Y11	Z11	X12	Y12	Z12	X13	Y13	Z13	X14	Y14	Z14	X15	Y15	Z15	X16	Y16	Z16	X17	Y17	Z17	X18	Y18	Z18	X19	Y19	Z19	X20	Y20	Z20	X21	Y21	Z21	X22	Y22	Z22	X23	Y23	Z23	X24	Y24	Z24	X25	Y25	Z25	X26	Y26	Z26	X27	Y27	Z27	X28	Y28	Z28	X29	Y29	Z29	X30	Y30	Z30	X31	Y31	Z31	X32	Y32	Z32	X33	Y33	Z33	X34	Y34	Z34	X35	Y35	Z35	X36	Y36	Z36	X37	Y37	Z37	X38	Y38	Z38	X39	Y39	Z39	X40	Y40	Z40	X41	Y41	Z41	X42	Y42	Z42	X43	Y43	Z43	X44	Y44	Z44	X45	Y45	Z45	X46	Y46	Z46	X47	Y47	Z47	X48	Y48	Z48	X49	Y49	Z49	X50	Y50	Z50	X51	Y51	Z51	X52	Y52	Z52	X53	Y53	Z53	X54	Y54	Z54	X55	Y55	Z55	X56	Y56	Z56

383	1.915	235.66	916.66	426.65	227.86	1385.1	420.52	214.56	1209.5	527.16	333.93	999.87	591.26	190.35	619.51	422.97	154.43	1420.5	276.35	96.411	940.56	-37.798	100.3	539.37	434.71	206.73	1085.7	583.35	49.784	1082.1	95.443	483.32	899.99	574.08	123.74	628.82	451.2	64.853	439.72	416.47	-81.577	194.63	327.04	-84.876	38.92	275.97	41.185	340.45	331.36	414.59	901.91	574.37	-108.67	34.408	364.98	178.54	1397.5	98.912	145.93	721.63	461.07	-17.266	269	329.1	-26.378	270.28	403.1	337.25	564.54	104.05	58.319	1085.6	17.35	-162.87	144.68	280.56	49.414	829.28	-34.168	456.8	954.14	534.57	78.062	940.38	200.04	290.63	1340.5	257.15	443.55	385.99	189.24	62.51	1110.4	265.78	179.73	1554.3	195.68	65.677	942.48	303.89	449.09	293.43	196.61	456.12	201.49	204.17	382.06	462.32	125.91	362.89	677	116.38	299.04	644.43	85.55	424.01	286.33	129.48	182.27	1560.6	334.49	128.77	821.75	-14.334	258.4	733.5	78.214	361.99	1585.3	215.04	569.26	42.393	248.58	89.478	1331.2	380.91	437.54	93.666	265.09	362.8	28.053	231.7	404.16	70.036	182.67	-189.69	141.82	368.87	-33.508	24.81	292.59	540.15	34.7	169.58	189.49	1035.7	496.84	609.9	53.04	231.45	108.21	1205.2	19.701	104.94	773.07	-62.402	-258.44	126.41	328.19
384	1.92	242.97	916.99	426.35	235.16	1386.1	419.82	221.03	1210.3	526.38	338.82	999.45	590.81	199.66	619.52	422.67	161.86	1421.1	275.1	102.93	940.62	-38.091	110.12	538.53	434.5	212.35	1086.5	582.31	57.384	1082	95.146	487.47	898.22	574.47	132.55	628.39	450.74	75.164	439.02	416.76	-75.31	196.74	327.68	-84.09	38.961	276	50.33	339.84	331.97	418.72	901.11	574.39	-107.38	35.014	364.89	185.79	1397.5	97.976	153.88	721.54	460.17	-9.4586	269.87	329.72	-18.964	271.3	403.88	344.94	565.49	103.23	65.863	1085.6	17.075	-157.65	148.01	281.29	55.602	829.09	-33.983	461.6	952.78	534.76	85.256	940.82	200.27	298.25	1341.2	256.33	450.22	385.31	188.97	69.811	1110.9	265.6	186.91	1554.3	194.59	73.053	942.49	303.86	453.78	292.56	196.41	459.56	200.56	203.76	390.43	462.77	125.63	370.14	678.13	116.4	306.27	645.3	84.765	428.56	286.11	129.2	189.23	1561.1	332.93	134.74	821.1	-14.666	265.75	734.19	76.914	368.99	1585.8	213.77	570.96	42.2	248.18	96.546	1331.9	380.1	438.95	93.431	265.08	363.42	28.663	231.55	405.44	69.853	182.53	-184.86	146.37	369.19	-33.608	24.79	293.06	541.19	34.318	168.45	194.96	1036.7	496.13	612.06	52.25	231.18	115.82	1205.1	19.254	110.83	772.98	-62.762	-253.11	132.65	328.08
385	1.925	251.26	916.93	425.05	242.65	1386.9	419.04	227.42	1211.1	525.65	343.67	999.15	590.56	208.83	619.6	422.32	169.37	1421.8	274.03	110.03	940.54	-38.319	120.23	537.59	434.35	217.96	1087.3	581.55	64.941	1082.1	95.337	491.21	896.55	574.65	141.94	627.81	450.07	86.072	438.09	417.33	-68.595	198.97	328.29	-83.008	39.117	275.78	59.91	339.5	332.53	422.72	899.92	574.53	-106.38	35.76	364.21	193.33	1397.8	97.138	161.76	721.14	459.51	-1.2477	270.47	330.7	-11.018	272.58	404.58	353.14	567.02	103.09	73.273	1085.5	16.759	-151.48	151.38	281.79	61.876	829.54	-33.866	466.18	951.2	534.73	92.96	941.57	200.26	305.58	1341.8	255.73	456.41	384.72	188.54	76.926	1111.6	265.36	194.06	1554.6	193.45	80.356	942.61	303.79	458.27	291.76	196.37	462.86	199.76	203.62	398.28	463.05	125.5	377.11	679.76	116.52	314.06	646.3	84.406	432.57	285.71	129.27	196.36	1561.7	331.75	141.11	821.06	-14.841	272.68	734.88	75.789	375.94	1586.5	212.65	572.56	42.024	248.56	104.01	1332.7	379.55	440.17	93.307	265.52	364.09	29	231.74	406.89	69.785	182.66	-179.38	150.75	369.43	-33.629	24.686	293.69	542.27	33.994	168.4	200.43	1037.8	495.07	613.42	51.542	231.96	123.23	1205.2	18.773	116.79	772.97	-63.178	-247.39	139.81	327.95
386	1.93	258.83	917.12	424.18	250.42	1387.9	418.3	233.84	1212	525.06	348.35	998.89	590.08	218.45	619.79	422	176.84	1422.5	273.11	116.85	940.74	-38.454	130.74	536.32	434.23	223.59	1088.5	580.96	72.649	1082.5	95.298	494.74	894.49	574.79	151.5	627.25	449.53	97.98	437.17	417.86	-60.716	201.32	328.64	-82.043	39.328	275.58	70.113	338.88	333.19	426.33	898.55	574.48	-105.31	36.643	363.65	200.75	1397.9	96.428	169.98	720.67	459.03	7.5372	270.69	331.76	-2.4136	273.51	405.34	361.48	568.51	103.27	80.763	1085.7	16.653	-144.49	155.09	282.45	68.274	830.01	-34.331	470.7	949.3	534.74	99.577	942.47	199.78	312.79	1342.4	254.9	462.43	384.04	188.24	83.57	1112.8	265.18	201.32	1554.8	192.22	87.321	943.11	303.77	462.52	291.04	196.17	465.63	198.89	203.73	405.26	463.19	125.73	384.01	681.53	116.65	321.71	647.42	84.289	436.27	285.06	129.35	203.48	1562.3	330.6	147.74	821.09	-15.3	279.18	735.21	74.892	383.02	1587.1	211.36	573.12	41.369	250.32	111.63	1333.9	379.12	440.93	93.15	266	364.48	29.278	231.59	407.96	69.846	182.84	-173.14	155.22	369.3	-33.885	24.634	294.71	543.17	33.702	168.59	206.01	1039	494.18	614.65	48.383	232.02	130.68	1205.4	18.387	122.97	773.13	-63.398	-240.72	146.85	327.48
387	1.935	265.53	917.64	423.68	257.75	1389	417.39	240.36	1212.9	524.38	352.97	998.48	589.45	228.05	620.04	421.7	183.91	1423.3	272.43	123.94	940.86	-38.694	142.16	535.08	433.86	229.38	1089.4	580.02	80.671	1083	95.095	498.47	892.51	575.04	160.94	626.55	449.22	109.82	436.39	418.46	-52.775	203.07	329.4	-81.09	39.519	275.5	80.799	338.31	333.93	429.72	897.12	574.23	-103.74	37.822	363.36	208.36	1398.5	95.727	178.27	720.24	458.32	16.879	270.8	332.84	6.417	274.87	406.15	369.55	569.75	103.55	88.251	1085.7	17.011	-137.03	158.39	282.79	75.008	830.31	-34.328	475.01	947.57	534.71	106.29	943.19	199.35	320.08	1343.1	254.37	468.12	383.35	187.75	90.344	1113.5	265.09	208.25	1555.5	190.91	94.449	943.57	303.6	466.68	290.49	196.06	467.88	198.13	204.27	411.48	463.05	125.92	391.06	683.11	116.55	328.96	648.33	84.24	439.76	284.48	129.52	210.68	1563.3	329.33	154.02	821.15	-15.426	286.02	735.72	74.483	390.12	1588.1	210.09	573.67	40.567	251.85	118.86	1335.1	378.37	441.09	92.88	266.64	364.7	29.46	231.31	408.67	69.993	183.11	-166.09	159.4	369.32	-34.161	24.546	295.79	543.86	33.595	168.72	211.64	1040.5	493.05	615.85	45.713	232.83	138.23	1205.6	17.967	129.32	773.3	-63.721	-233.3	154.42	327.08
388	1.94	271.96	918.3	423.59	265.08	1390.2	416.67	246.79	1214.1	523.72	357.69	998	588.83	238.07	619.88	421.45	191.3	1424.2	271.84	131.01	941.3	-38.806	153.49	534.14	433.95	234.5	1090.5	579.14	88.398	1083.4	94.961	501.49	890.31	575.33	170.7	625.8	449.01	122.05	435.63	419.19	-44.184	204.59	330.2	-79.902	39.852	275.43	92.259	337.4	334.87	433.17	895.95	574.06	-101.6	39.39	363.1	215.86	1398.9	94.966	186.53	720.04	457.15	27.148	271.33	333.92	15.666	276.16	406.78	377.4	571.07	103.69	96.04	1086.4	16.49	-128.48	161.99	283.31	81.898	830.86	-34.083	478.89	945.69	534.77	113.48	944.17	199.12	327.33	1343.8	253.84	473.56	382.67	187.64	97.366	1114.5	264.78	215.41	1555.7	189.8	101.45	943.95	303.15	470.59	289.83	196.22	470.36	197.57	204.87	416.91	463.1	126.23	397.99	684.5	116.67	336.36	649.19	84.398	443	283.97	129.89	217.72	1564.1	328.24	161.1	821.4	-15.833	292.75	736.32	74.124	397.2	1589.2	208.77	574.11	39.609	252.49	126.29	1336.3	377.56	441.14	92.742	267.29	364.83	29.611	231.25	409.29	70.21	183.58	-158.38	164.47	369.38	-34.161	24.538	296.55	544.51	33.537	168.84	217.29	1041.9	491.98	617.01	43.743	233.89	145.83	1205.9	17.556	135.7	773.75	-63.96	-224.95	161.79	326.61
389	1.945	278	918.8	423.29	272.74	1391.4	415.84	253.12	1215.2	522.88	361.95	997.8	588.19	248.16	620.52	421.48	198.47	1425.1	270.9	137.95	941.89	-38.985	164.98	533.08	434.05	239.9	1091.7	578.24	95.952	1084.3	94.794	504.52	888.16	575.47	180.52	625.07	448.69	135.21	434.69	419.23	-34.645	206.17	331.07	-78.378	40.063	275.67	104.34	336.69	335.7	436.11	894.46	573.85	-99.381	41.332	363.08	223.28	1399.6	94.362	194.94	719.82	456.27	37.861	271.87	334.89	25.688	277.52	407.4	384.9	572.1	103.74	103.93	1087.2	15.952	-119.37	165.39	283.53	88.874	831.35	-34.392	482.89	943.65	534.79	120.42	944.98	198.86	334.72	1344.6	253.27	478.49	382.07	187.62	104.4	1115.4	264.23	222.44	1556.3	188.73	108.27	944.58	302.72	473.84	289.23	196.81	472.16	197.18	205.51	421.49	463.23	126.61	405.02	685.85	116.8	343.46	649.98	84.572	445.81	283.61	130.44	224.7	1565.2	327.1	167.82	821.7	-15.989	299.56	736.82	73.699	404.09	1589.8	207.47	574.58	39.031	252.86	133.71	1337.9	377.2	441.32	92.583	267.99	364.99	29.765	231.36	409.83	70.564	184.11	-150.27	169.35	369.78	-33.937	24.542	297.22	545	33.373	168.76	222.93	1043.6	490.79	618.46	42.087	234.99	153.58	1206.4	17.191	142.43	773.96	-64.153	-215.65	168.88	325.9
390	1.95	284.33	919.32	422.88	279.99	1392.6	415.2	259.66	1216.3	522.25	366.16	997.48	587.69	258.46	620.61	421.33	205.48	1426.2	269.9	145.44	942.34	-39.141	176.89	531.84	434.1	245.59	1092.8	577.31	103.56	1085.1	94.743	507.17	885.71	575.7	190.51	624.42	448.28	146.75	434.29	419.67	-24.109	208.29	331.51	-76.615	40.574	275.99	116.69	335.92	336.5	438.89	893.02	573.74	-96.508	43.297	362.64	230.94	1400.1	93.66	203.66	719.2	455.72	48.953	272.31	335.48	35.765	278.89	408.02	391.68	572.79	103.56	111.49	1087.7	15.61	-109.64	168.38	284.25	95.898	832.01	-34.605	486.59	941.58	534.58	127.59	946.04	198.55	341.96	1345.6	252.74	482.49	381.71	188.1	111.43	1116.1	263.95	229.7	1556.9	187.65	115.1	945.08	302.55	476.83	288.84	197.43	474.17	196.86	206.09	425.76	463.35	126.82	411.86	686.79	116.92	350.5	650.91	84.726	448.39	283.41	131.25	231.82	1566.2	325.95	174.98	822.09	-15.993	306.33	737.63	73.573	411.09	1590.6	206.27	575.36	38.334	253	140.86	1339.1	376.96	441.72	92.359	268.6	365.14	29.896	231.51	410.28	70.89	184.45	-141.1	173.66	369.82	-33.803	24.64	298.11	545.43	33.197	168.63	228.44	1045.1	489.73	619.43	40.629	235.7	161.45	1206.8	16.78	149.42	774.65	-64.477	-205.92	176.04	325.42
